<svg width="35" height="40" viewBox="0 0 35 40" fill="none" xmlns="http://www.w3.org/2000/svg">
<circle cx="26" cy="9" r="9" fill="#6869D7"/>
<circle cx="26" cy="9" r="9" fill="#7549FE"/>
<path d="M27.858 12H23.6295V10.8086H25.109V6.42871L23.6295 7.1709V5.84766L25.3922 4.99805H26.3785V10.8086H27.858V12Z" fill="white"/>
<path d="M27.858 12H23.6295V10.8086H25.109V6.42871L23.6295 7.1709V5.84766L25.3922 4.99805H26.3785V10.8086H27.858V12Z" fill="white"/>
<path d="M16.2136 18.3932C16.9531 18.3932 17.5447 18.9402 17.6187 19.5556L19.3935 36.1026C19.4675 36.5812 19.1717 36.9915 19.0238 37.1282C18.8759 37.265 18.5061 37.5385 17.9884 37.5385H4.08544C3.56778 37.5385 3.19801 37.265 3.05011 37.1282C2.90221 36.9915 2.6064 36.6496 2.68035 36.1026L4.38125 19.6239C4.4552 18.9402 5.04682 18.4615 5.78634 18.4615L16.2136 18.3932ZM16.2136 16H5.86029C3.78963 16 2.01478 17.4359 1.86688 19.3504L0.018074 35.8974C-0.203782 38.0855 1.64502 40 4.01149 40H17.9884C20.3549 40 22.2037 38.0855 21.9818 35.8974L20.207 19.3504C19.9851 17.4359 18.2842 16 16.2136 16Z" fill="#353535"/>
<path d="M14.2919 20.3076C13.8221 20.3076 13.3523 20.6495 13.2181 21.1281C12.8825 22.0854 12.01 22.7692 11.0033 22.7692C9.99663 22.7692 9.12415 22.0854 8.78858 21.1281C8.65436 20.6495 8.18456 20.3076 7.71476 20.3076C6.9094 20.3076 6.30537 21.1281 6.64094 21.9486C7.31208 23.7948 9.05704 25.0939 11.0705 25.0939C13.0839 25.0939 14.8288 23.7948 15.5 21.9486C15.6342 21.1281 15.0973 20.3076 14.2919 20.3076Z" fill="#7549FE"/>
</svg>
