<svg width="20" height="20" viewBox="0 0 20 20" fill="none" xmlns="http://www.w3.org/2000/svg">
<path fill-rule="evenodd" clip-rule="evenodd" d="M0 8.60081C0 3.85071 3.85071 0 8.6008 0C13.3509 0 17.2016 3.85071 17.2016 8.60081C17.2016 13.3509 13.3509 17.2016 8.6008 17.2016C3.85071 17.2016 0 13.3509 0 8.60081ZM8.6008 1.91129C4.90628 1.91129 1.91129 4.90629 1.91129 8.60081C1.91129 12.2953 4.90628 15.2903 8.6008 15.2903C12.2953 15.2903 15.2903 12.2953 15.2903 8.60081C15.2903 4.90628 12.2953 1.91129 8.6008 1.91129Z" fill="#353535"/>
<path fill-rule="evenodd" clip-rule="evenodd" d="M13.6975 13.6975C14.0707 13.3243 15.2744 13.9227 15.6476 14.2959L19.4701 18.1185C19.8433 18.4917 19.8433 19.0968 19.4701 19.47C19.0969 19.8432 18.4918 19.8432 18.1186 19.47L14.2961 15.6474C13.9229 15.2742 13.3243 14.0707 13.6975 13.6975Z" fill="#353535"/>
</svg>
