<svg width="28" height="27" viewBox="0 0 28 27" fill="none" xmlns="http://www.w3.org/2000/svg">
<path fill-rule="evenodd" clip-rule="evenodd" d="M14.2664 0C6.82092 0 0.785156 6.04416 0.785156 13.5C0.785156 20.9558 6.82092 27 14.2664 27C21.7119 27 27.7477 20.9558 27.7477 13.5C27.7477 6.04416 21.7119 0 14.2664 0ZM11.3024 6.3435C12.0693 6.30855 12.3144 6.3 14.2671 6.3H14.2648C16.2181 6.3 16.4623 6.30855 17.2292 6.3435C17.9947 6.3786 18.5175 6.49995 18.9758 6.678C19.4492 6.86176 19.8491 7.10776 20.2491 7.50826C20.649 7.90847 20.8947 8.31017 21.0789 8.78373C21.2557 9.24153 21.377 9.76474 21.413 10.5312C21.4474 11.2993 21.4564 11.5447 21.4564 13.5001C21.4564 15.4555 21.4474 15.7003 21.413 16.4683C21.377 17.2345 21.2557 17.7579 21.0789 18.2158C20.8947 18.6892 20.649 19.0909 20.2491 19.4911C19.8496 19.8916 19.449 20.1382 18.9763 20.3221C18.5188 20.5002 17.9957 20.6215 17.2303 20.6566C16.4634 20.6916 16.219 20.7001 14.2662 20.7001C12.3136 20.7001 12.0687 20.6916 11.3018 20.6566C10.5365 20.6215 10.0139 20.5002 9.55639 20.3221C9.08379 20.1382 8.68264 19.8916 8.28314 19.4911C7.88334 19.0909 7.63768 18.6892 7.45389 18.2157C7.27623 17.7579 7.15505 17.2347 7.11985 16.4682C7.0851 15.7001 7.07641 15.4555 7.07641 13.5001C7.07641 11.5447 7.0854 11.2991 7.1197 10.5311C7.15415 9.76489 7.27548 9.24153 7.45374 8.78358C7.63798 8.31017 7.88364 7.90847 8.28359 7.50826C8.68324 7.10791 9.08439 6.86191 9.55729 6.678C10.0145 6.49995 10.5369 6.3786 11.3024 6.3435Z" fill="white"/>
<path fill-rule="evenodd" clip-rule="evenodd" d="M13.6224 7.5975C13.7476 7.59731 13.8824 7.59737 14.0278 7.59743L14.2674 7.5975C16.1872 7.5975 16.4147 7.6044 17.1728 7.6389C17.8738 7.671 18.2543 7.78831 18.5078 7.88686C18.8433 8.01736 19.0825 8.17336 19.334 8.42536C19.5857 8.67736 19.7415 8.91737 19.8721 9.25337C19.9705 9.50687 20.0878 9.88788 20.1197 10.5899C20.1541 11.3489 20.1616 11.5769 20.1616 13.4984C20.1616 15.4199 20.1541 15.6479 20.1197 16.4069C20.0876 17.109 19.9705 17.49 19.8721 17.7435C19.7418 18.0795 19.5857 18.3187 19.334 18.5706C19.0824 18.8226 18.8434 18.9786 18.5078 19.1091C18.2546 19.2081 17.8738 19.3251 17.1728 19.3572C16.4148 19.3917 16.1872 19.3992 14.2674 19.3992C12.3475 19.3992 12.12 19.3917 11.362 19.3572C10.661 19.3248 10.2805 19.2075 10.0269 19.1089C9.69138 18.9784 9.45171 18.8224 9.20006 18.5704C8.9484 18.3184 8.79262 18.079 8.662 17.7429C8.56358 17.4894 8.4463 17.1084 8.41439 16.4063C8.37994 15.6473 8.37305 15.4193 8.37305 13.4966C8.37305 11.5739 8.37994 11.3471 8.41439 10.5881C8.44645 9.88608 8.56358 9.50507 8.662 9.25127C8.79232 8.91527 8.9484 8.67526 9.20006 8.42326C9.45171 8.17126 9.69138 8.01526 10.0269 7.88446C10.2804 7.78546 10.661 7.66845 11.362 7.6362C12.0253 7.6062 12.2824 7.5972 13.6224 7.5957V7.5975ZM18.1054 8.79302C17.6291 8.79302 17.2426 9.17957 17.2426 9.65672C17.2426 10.1337 17.6291 10.5207 18.1054 10.5207C18.5818 10.5207 18.9682 10.1337 18.9682 9.65672C18.9682 9.17972 18.5818 8.79272 18.1054 8.79272V8.79302ZM10.575 13.5001C10.575 11.4581 12.2282 9.80261 14.2673 9.80253C16.3064 9.80253 17.9592 11.4581 17.9592 13.5001C17.9592 15.542 16.3065 17.1969 14.2674 17.1969C12.2283 17.1969 10.575 15.542 10.575 13.5001Z" fill="white"/>
<path d="M14.2668 11.1C15.5904 11.1 16.6635 12.1745 16.6635 13.5001C16.6635 14.8255 15.5904 15.9001 14.2668 15.9001C12.9431 15.9001 11.8701 14.8255 11.8701 13.5001C11.8701 12.1745 12.9431 11.1 14.2668 11.1Z" fill="white"/>
</svg>
