<svg width="28" height="27" viewBox="0 0 28 27" fill="none" xmlns="http://www.w3.org/2000/svg">
<path fill-rule="evenodd" clip-rule="evenodd" d="M0.845703 13.5C0.845703 20.9558 6.88146 27 14.327 27C21.7724 27 27.8082 20.9558 27.8082 13.5C27.8082 6.04416 21.7724 0 14.327 0C6.88146 0 0.845703 6.04416 0.845703 13.5ZM22.7876 12.9833C22.7859 17.4084 19.1912 21.009 14.7713 21.0108H14.768C13.4264 21.0103 12.1081 20.6732 10.9372 20.0337L6.68758 21.15L7.82484 16.9902C7.12332 15.7728 6.75419 14.3918 6.75479 12.977C6.75655 8.55095 10.3527 4.95 14.7712 4.95C16.9157 4.95093 18.9285 5.78692 20.4419 7.30429C21.9554 8.82159 22.7885 10.8384 22.7876 12.9833Z" fill="white"/>
<path fill-rule="evenodd" clip-rule="evenodd" d="M8.61243 19.2428L11.1342 18.5804L11.3775 18.725C12.4005 19.3329 13.5731 19.6546 14.7687 19.655H14.7714C18.4438 19.655 21.4328 16.6619 21.4342 12.9829C21.4349 11.2 20.7426 9.52371 19.4846 8.26253C18.2266 7.00135 16.5537 6.30647 14.7741 6.30585C11.0988 6.30585 8.10986 9.29872 8.1084 12.9775C8.10788 14.2382 8.46014 15.466 9.12711 16.5283L9.28553 16.7807L8.61243 19.2428ZM18.5357 14.7116C18.6754 14.7792 18.7698 14.8249 18.81 14.8922C18.8601 14.9759 18.8601 15.3775 18.6933 15.8461C18.5263 16.3146 17.7261 16.7422 17.3412 16.7998C16.9961 16.8515 16.5594 16.873 16.0796 16.7203C15.7887 16.6279 15.4156 16.5045 14.9377 16.2978C13.0599 15.4858 11.7909 13.6633 11.5511 13.3189C11.5343 13.2947 11.5225 13.2779 11.516 13.2691L11.5144 13.2669C11.4084 13.1253 10.6981 12.1763 10.6981 11.1942C10.6981 10.2702 11.1513 9.78596 11.3599 9.56305C11.3742 9.54778 11.3874 9.53373 11.3992 9.52085C11.5827 9.32004 11.7998 9.26984 11.9333 9.26984C12.0668 9.26984 12.2005 9.27108 12.3172 9.27694C12.3316 9.27767 12.3466 9.27758 12.3621 9.27749C12.4788 9.2768 12.6243 9.27595 12.7679 9.62126C12.8231 9.75415 12.9039 9.95115 12.9891 10.1589C13.1615 10.5791 13.3519 11.0434 13.3854 11.1106C13.4355 11.211 13.4689 11.3281 13.4021 11.462C13.3921 11.4821 13.3828 11.501 13.374 11.5191C13.3238 11.6217 13.2869 11.6971 13.2018 11.7966C13.1684 11.8357 13.1338 11.8779 13.0992 11.9201C13.0303 12.0041 12.9614 12.0882 12.9014 12.148C12.8011 12.248 12.6967 12.3566 12.8135 12.5574C12.9304 12.7582 13.3324 13.415 13.9278 13.9469C14.5679 14.5186 15.1243 14.7603 15.4062 14.8827C15.4613 14.9067 15.5059 14.926 15.5386 14.9424C15.7389 15.0429 15.8557 15.0261 15.9726 14.8922C16.0894 14.7584 16.4733 14.3065 16.6068 14.1057C16.7403 13.905 16.8739 13.9384 17.0574 14.0054C17.2411 14.0724 18.2259 14.5575 18.4262 14.6579C18.4653 14.6775 18.5018 14.6952 18.5357 14.7116Z" fill="white"/>
</svg>
