<svg width="28" height="27" viewBox="0 0 28 27" fill="none" xmlns="http://www.w3.org/2000/svg">
<path fill-rule="evenodd" clip-rule="evenodd" d="M14.1434 0C6.69787 0 0.662109 6.04416 0.662109 13.5C0.662109 20.9558 6.69787 27 14.1434 27C21.5889 27 27.6246 20.9558 27.6246 13.5C27.6246 6.04416 21.5889 0 14.1434 0ZM19.7615 8.859C20.3802 9.02902 20.8675 9.52999 21.0329 10.1662C21.3334 11.3192 21.3334 13.725 21.3334 13.725C21.3334 13.725 21.3334 16.1307 21.0329 17.2838C20.8675 17.92 20.3802 18.421 19.7615 18.5911C18.6401 18.9 14.1434 18.9 14.1434 18.9C14.1434 18.9 9.64659 18.9 8.52519 18.5911C7.90645 18.421 7.41916 17.92 7.25379 17.2838C6.95336 16.1307 6.95336 13.725 6.95336 13.725C6.95336 13.725 6.95336 11.3192 7.25379 10.1662C7.41916 9.52999 7.90645 9.02902 8.52519 8.859C9.64659 8.55 14.1434 8.55 14.1434 8.55C14.1434 8.55 18.6401 8.55 19.7615 8.859Z" fill="white"/>
<path d="M12.7949 16.2V11.7L16.3899 13.9501L12.7949 16.2Z" fill="white"/>
</svg>
